<svg width="100" height="100" viewBox="0 0 50 50" fill="none" xmlns="http://www.w3.org/2000/svg">
<g clip-path="url(#clip0_91_22)">
<path d="M11.5 43.5L11.6 42.8L10.7 42.7L10.8 42.1L9.9 42L9.8 42.7L10.7 42.9L10.6 43.5H11.5ZM7.7 40.1C7.9 40.2 8.2 40.1 8.4 40C8.7 39.8 8.6 39.6 8.4 39.5C8.2 39.3 7.8 39.3 7.6 39.2C7.4 39 7.9 39 7.6 38.7C7.3 38.4 6.9 38.6 6.7 38.7C6.5 38.8 6.5 38.8 6.5 38.9C6.7 39.1 7.2 38.9 7.3 39.2C7.4 39.4 7 39.5 7.1 39.5C7.3 39.7 7.8 39.6 8 39.8C8.1 40 7.7 40 7.7 40.1ZM2.4 31.1L2.9 30.5L2.3 30L1.8 30.6L2.4 31.1ZM3.7 31.5L4.2 31L3.5 30.5L3.9 30L3.2 29.4L2.7 30L3.4 30.6L3 31L3.7 31.5ZM14.7 42.7C14.9 42.7 14.8 42.5 14.7 42.5C14.6 42.5 13.9 42.3 13.5 42.2C11.6 38.4 9.9 37.9 8.8 36.9C8.6 36.7 8.9 36.2 8.7 36C8.5 35.7 7.7 35.4 7.5 35.2C7.3 35 7.5 34.6 7.4 34.4C7.2 34 6.9 34.1 6.8 33.9C6.7 33.8 6.8 33.8 6.8 33.7C6.9 33.6 6.9 33.4 6.9 33.2C6.9 32.9 6.7 32.7 6.6 32.5C6.5 32.4 6 31.8 5.9 31.6C5.8 31.4 6.1 31.3 6.1 31V30.9C5.9 30.7 5.4 30.2 5.3 30C5.2 29.8 5.5 29.5 5.5 29.5C5.5 29.4 5.5 29.3 5.5 29.3C5.4 29.1 5.1 29 5 28.9C5 28.7 5.1 28.4 5 28.1C4.8 27.5 4.4 27.1 3.8 27.1C3.8 27.1 2 26.9 1.7 26.9C1.5 26.9 1.7 27.3 2 27.5C2.3 27.7 2.5 27.6 4.1 27.8C4.3 27.8 4.4 28 4.4 28.1C4.5 28.3 4.4 28.6 4.3 28.7V28.8C4.3 28.8 4.7 29.2 4.8 29.3C4.9 29.4 4.8 29.6 4.7 29.7C4.6 29.8 4.5 29.8 4.5 29.9C4.7 30.2 5.1 30.3 5.2 30.7C5.2 30.8 5.2 30.9 5.1 30.9C4.9 31.1 4.9 31.2 5.1 31.4C5.3 31.6 5.6 31.8 5.8 32.1C6.1 32.4 6.2 32.8 6 33.1C5.9 33 5.7 33 5.5 33C5.4 33 5.2 33 5.1 33.1C4.8 33.3 4.7 33.6 4.7 34C4.7 34.2 4.8 34.4 4.9 34.6C5.1 34.9 5.3 35.2 5.7 35.4C5.8 35.5 6 35.4 6 35.3V35.2C6 34.8 6 34.6 6.2 34.6C6.4 34.6 6.5 34.6 6.5 34.7C6.7 35 6.5 35.3 6.6 35.5C6.7 35.7 7 35.7 7.4 35.9C7.6 36 7.8 36.2 8 36.4C8.2 36.7 7.6 36.9 7.8 37.2C7.9 37.3 7.9 37.4 8 37.5C9.9 38.7 11.4 40.5 12.2 42.6C12.2 42.7 12.3 42.9 12.4 42.8C13.4 42.7 13.9 42.7 14.7 42.7ZM12.8 38.1L13 37.4L12.1 37.2L12.3 36.6L11.4 36.4L11.2 37.1L12 37.3L11.9 37.8L12.8 38.1ZM9.3 34.6L9.7 34L9 33.5L8.6 34.2L9.3 34.6ZM5.1 25.5C4.9 25.2 4.5 24.9 4.2 24.9C3.6 24.8 3.3 24.9 2.7 24.8C2.5 24.8 2.3 24.7 2.1 24.6C1.9 24.6 1.9 24.7 2.1 24.8C2.4 25.1 2.8 25.2 3.1 25.3C3.8 25.5 4.5 25.5 5.1 25.5ZM2.4 21.1L3.1 21L2.9 20.1L3.5 20L3.3 19.1L2.6 19.2L2.8 20.1L2.2 20.2L2.4 21.1ZM5.5 23.2C5.5 23.2 5.6 23.2 5.7 23.2C5.7 23.2 5.7 23.1 5.7 23C5.4 22.7 5.3 22.3 5.2 22C7 20 7.2 18.4 7.3 15.4C8.2 15.8 8.9 14.5 8.8 13.4C8.7 12.5 8 11.3 7.4 11.8C7 12.2 7 12.8 7.3 13.6C7.2 13.4 7.1 13.3 6.9 13.1L5.8 12.1C5.7 12 5.6 12.1 5.6 12.2C5.7 12.6 5.9 12.9 6.2 13.2C6.6 13.5 7 13.9 7.4 14.2C7.7 14.6 7 15 6.6 14.7C6.8 17.1 6 19.5 4.4 21.2C4.4 21.2 4.3 21.2 4.3 21.3V21.4C4.6 22.1 5 22.7 5.5 23.2ZM8 18.4L8.7 18.3L8.5 17.4L9.1 17.3L8.9 16.4L8.2 16.5L8.4 17.4L7.8 17.5L8 18.4ZM7.9 14.2C7.7 13.8 7.5 13.3 7.5 12.8C7.5 12.6 7.7 12.3 7.9 12.4C8.1 12.6 8.2 12.9 8.2 13.2C8.1 13.6 8 13.9 7.9 14.2ZM38.8 43.2C38.9 42.9 38.9 42.5 38.8 42.2C38.2 41.2 37.6 40.2 36.9 39.3C36.8 39.6 36.8 40 36.9 40.3C37.5 41.3 38.1 42.3 38.8 43.2ZM38.5 39L38.6 38.2L37.8 38.1L37.7 38.9L38.5 39ZM40 43.4C40.1 43.5 40.1 43.3 40.2 43.2C40.2 43.1 40.2 43 40.3 42.9C40.4 42.6 40.5 42.4 40.6 42.1C40.8 41.8 41 41.4 41.2 41.2C41.4 40.9 41.6 40.7 41.7 40.4C41.8 40.1 41.8 38.8 41.4 38.6C41.3 38.6 40.9 39.3 40.6 39.5C40.6 39.3 40.6 39.1 40.6 38.9L40 38.7C40 38.9 39.9 39.8 39.9 39.9C39.9 40 39.9 40.6 39.9 40.8C39.9 41 40.5 40.4 40.7 40.3L40.9 40.1C41 40.1 40.9 40.3 40.8 40.4C40.2 41.2 39.9 42.1 39.9 43.1C39.9 43.1 39.9 43.4 40 43.4ZM10.1 11.1C10.2 10.8 10.1 10.4 9.8 10.1L8.8 9.1C8.6 8.9 8.5 8.8 8.4 8.6C8.3 8.5 8.2 8.6 8.2 8.7C8.2 9.1 8.4 9.4 8.6 9.7C9.1 10.2 9.6 10.6 10.1 11.1ZM40.6 38.9C40.7 38.3 40.7 37.9 40.7 37.4C40.7 37 40.8 36.6 40.9 36.3C41.5 36.8 41.9 36.9 42.1 36.6C42.3 36.2 42.4 35.7 42.4 35.2V35.1C42.8 35.3 43.3 35.4 43.5 35C43.7 34.6 43.7 34.2 43.6 33.8C43.5 33.4 43.3 33.1 43 32.9C42.8 32.8 42.5 32.8 42.2 33.2C42.1 32.6 42.1 32 42.2 31.4C42.3 31.2 42.5 30.7 42.5 30.5C42.4 30.4 41.5 31.5 41.4 31.7C41.3 31.9 41.4 32.1 41.8 33.9C41.8 34.1 42.1 35.2 41.8 35.5C41.5 35.8 41.5 35.5 41.2 35.3C41 35 41 34.6 40.9 34.3C40.9 34.2 40.8 34 40.7 34.1C40.6 34.1 40.6 34.2 40.5 34.4C40.4 34.8 40.3 35.2 40.3 35.5C40.3 36.3 40.3 36.9 40.2 37C40.1 37.1 39.9 37.1 39.8 37.2C39.2 37.4 39 38.2 39.6 38.3C39.8 38.3 40 38.1 40.2 38.2C40.4 38.2 40.2 38.5 40.2 38.6L40.6 38.9ZM10.3 12.4C10.9 12.2 11.4 12 11.9 11.7C12.1 11.5 12.1 10.6 12.1 9.9C13.7 9.5 15.2 8.9 16.6 8.2C17.3 7.9 18 7.5 18.7 7C19.4 6.4 20.6 5.5 20.9 5.2C21 5.1 21.2 4.9 21.4 4.9C21.6 4.8 21.9 5.5 22.4 5.3C22.7 5.2 22.9 4.9 23 4.6C23 4.4 22.9 4.3 22.8 4.2C22.7 4.2 22.6 4.1 22.5 4C22.4 3.9 22.5 3.8 22.6 3.7C22.7 3.5 23 3.3 23.3 3.2C23.6 3.2 23.7 3.5 24 3.4C24 3.1 24.1 3 24.2 2.8C24.2 2.7 24.2 2.5 24.1 2.5C23.9 2.4 23.7 2.3 23.5 2.3C23.2 2.4 22.8 2.6 22.6 2.8C22.1 3.2 21.6 3.7 21.4 4.3C21.1 4.5 20.8 4.7 20.5 4.9L20.2 5.1C20.2 4.9 20.2 4.7 20.2 4.5C20.2 4.4 20.1 4.3 20.1 4.2C20 4 19.7 3.8 19.4 3.9C19.3 3.9 19.2 4 19.1 4C18.7 4.3 18.4 4.7 18.3 5.2C18.2 5.5 18.3 5.9 18.6 6.1C18.3 6.3 18.1 6.5 17.8 6.7C16 7.7 14 8.4 12 8.7C11.9 8.7 11.7 8.9 11.7 9C11.5 10.9 11.8 11.2 10.3 12.4ZM15.5 5.8L15.8 4.9L16.3 5.1L16.6 4.2L15.9 4L15.6 4.8L15.1 4.6L14.8 5.5L15.5 5.8ZM44.6 33.1C44.8 33.4 45 33.2 44.9 32.9C44.6 32.5 44.4 32.1 44.2 31.6C43.9 30.8 43.8 29.9 43.8 29C43.8 28.9 43.7 28.8 43.6 29.1C43.3 29.7 43.2 30.3 43.2 31C43.2 31.5 43.3 31.4 44.6 33.1ZM19 5.4C18.9 5.3 19 5.1 19.2 5C19.4 4.9 19.7 5.3 19.7 5.4C19.5 5.5 19.2 5.6 19 5.4ZM42.4 28.4L43.1 27.9L42.6 27.2L43.1 26.8L42.6 26.1L42 26.7L42.5 27.4L42 27.7L42.4 28.4ZM22.1 7.9L22.5 7.1L23 7.4L23.4 6.6L22.8 6.2L22.4 7L21.9 6.6L21.5 7.4L22.1 7.9ZM45.7 29.8C45.8 29.7 45.2 28.9 45.2 28.8C45.2 28.6 45.2 28.4 45.3 28.3C45.4 28.2 45.7 28 45.7 27.7C45.8 27.5 45.5 26.9 45.2 26.7C45.1 26.6 44.7 26.2 44.6 26.1C44.5 26 44.5 26.1 44.5 26.1C44.3 26.3 45 27 44.8 27.3C44.6 27.5 44.4 27.6 44.3 27.8C44 28.2 44.9 29.2 45.3 29.6C45.4 29.7 45.6 29.9 45.7 29.8ZM46.9 29.7L47.6 29.2L47.1 28.5L47.6 28.1L47.1 27.4L46.5 27.9L47 28.6L46.4 29L46.9 29.7ZM43.1 22.2L43.7 21.6L43.1 21L42.5 21.6L43.1 22.2ZM47.7 24.8C47.6 24.4 47.1 24.2 47 24.1C45.9 23.7 44.8 23.3 43.7 23.1C43.9 23.4 44.1 23.6 44.4 23.8C45.4 24.2 46.5 24.6 47.7 24.8ZM26.8 6.5C27.6 6.7 28.3 5.6 28.5 5.1C28.7 4.8 29.1 3.6 29.3 3C29.3 2.9 29.4 2.8 29.3 2.7C29 2.8 28.8 3 28.7 3.3C28.6 3.6 28.2 4.8 28 5.3C27.9 5.5 27.5 5.5 27.3 5.5C27.1 5.5 26.8 5.4 26.8 5.1C26.8 4.8 27.2 4.1 27.1 4H27C26.9 4 26.8 4.1 26.7 4.3C26.5 4.5 26.3 4.7 26.1 4.9C25.6 5.2 25.1 5.3 24.6 5.2C24.5 5.2 24.5 5.2 24.5 5.2C24.5 5.2 24.5 5.3 24.7 5.4C24.9 5.6 25.2 5.7 25.5 5.8C25.7 5.8 26 5.5 26.5 5.1C26.2 5.7 26.2 6.3 26.8 6.5ZM32.9 9.6L33.7 9.4L33.5 8.6L32.7 8.7L32.6 8.1L31.8 8.3L32 9.1L32.7 9L32.9 9.6ZM48.3 23.7C48.4 23.7 48.3 23.5 48.2 23.4C48.1 23.3 48.1 23.2 48 23.2C47.8 23 47.7 22.8 47.6 22.5C47.5 22.2 47.3 21.8 47.2 21.5C47.1 21.2 47 20.8 46.8 20.6C46.6 20.3 45.6 19.6 45.2 19.8C45.1 19.9 45.5 20.6 45.4 20.9C45.3 20.8 45.1 20.6 45 20.5L44.4 20.9C44.5 21.1 44.6 21.2 44.7 21.2C44.8 21.2 45.9 22.2 46 22.2C46.2 22.2 46 21.5 46 21.3V21C46.1 21 46.2 21.1 46.2 21.2C46.5 22.1 47 22.9 47.8 23.5C48 23.6 48.2 23.7 48.3 23.7ZM44.5 20.8L45.1 20.4L44.7 20C43.3 18.4 42.5 16.2 42.6 14.1C42.6 14 42.6 13.9 42.4 13.9C40.4 13.7 40.2 13.4 39.3 12C39.3 11.9 39.1 12 39.1 12.1L39.4 13.7C39.5 14 39.7 14.2 40 14.2L41.4 14.3C41.5 16 42 17.6 43 19.1C43.5 19.6 44 20.2 44.5 20.8ZM29.6 6C29.9 5.9 30.2 5.7 30.4 5.3C30.6 4.8 30.7 4.4 30.9 3.9C31 3.7 31 3.6 31.1 3.4C31.2 3.2 31.1 3.2 30.9 3.3C30.7 3.4 30.5 3.6 30.4 3.8C30 4.9 29.8 5.4 29.6 6ZM34.4 8C35 8 35.6 7.9 36.1 7.6C36.4 7.5 36.7 7.4 36.6 7.2C36.5 7 35.6 7.4 35.4 7.3C35.2 7.3 35.1 7.2 35 7C34.9 6.8 34.7 6.7 34.6 6.5C34.3 6.3 33.9 6.5 33.6 6.6C33.3 6.7 33.1 6.8 32.9 7L32.8 7.1C33 7.3 33.7 6.8 33.9 7.1C34.1 7.4 34.2 7.6 34.3 7.7C34.2 7.9 34.3 8 34.4 8ZM39.3 10.5C39.7 10.5 40 10.5 40.3 10.3L40.5 10.2C40.6 10.2 40.6 10.1 40.6 10C40.6 9.9 40.4 9.9 40.3 10C40 10.2 39.6 10.1 39.3 9.9C39.1 9.8 39 9.6 38.7 9.6L37.6 9.8C37.2 9.9 36.7 9.8 36.4 9.5C35.7 9 35.5 9 35.4 9.1C35.3 9.2 35.4 9.3 35.5 9.4C36.1 10.1 36.1 10.3 36.5 10.4C36.9 10.4 37.4 10.2 37.9 10.2C38.4 10.1 38.8 10.4 39.3 10.5ZM34.5 5.4L35.3 5.1L35 4.4L34.2 4.7L34 4L33.2 4.3L33.5 5.1L34.3 4.8L34.5 5.4ZM41.2 11.9L42.5 11.3L43 11.1C43.2 11.1 43.1 10.9 43 10.9C42.8 10.8 42.5 10.8 42.3 10.9C41.6 11.2 40.9 11.6 40.2 11.9C40.6 12 41 12 41.2 11.9ZM43.7 13.5L44.1 12.8L43.4 12.4L43 13.1L43.7 13.5ZM41.3 9.5C41.5 9.4 41.4 9.2 41.3 9.1L41.1 9C40.9 8.8 41.1 8.8 41.2 8.8C41.3 8.8 41.6 9.1 41.8 9C41.8 8.9 41.4 8.6 41.4 8.6C41.2 8.5 41 8.5 40.9 8.6C40.7 8.7 40.7 8.9 40.9 9C41.1 9.1 41.2 9.2 41.1 9.2C41 9.2 40.6 8.9 40.5 8.9C40.4 8.9 40.4 8.9 40.3 8.9C40.9 9.4 41.1 9.6 41.3 9.5ZM25 50C38.8 50 50 38.8 50 25C50 11.2 38.8 0 25 0C11.2 0 0 11.2 0 25C0 38.8 11.2 50 25 50ZM25 49C11.7 49 1 38.3 1 25C1 11.7 11.7 1 25 1C38.3 1 49 11.8 49 25C49 38.3 38.3 49 25 49ZM25.2 45.8C27.5 45.9 29.7 45.1 31.3 43.4L32.7 42L31 42.9C30 43.5 28.8 43.8 27.6 43.8C23.6 43.8 20.4 40.6 20.4 36.7V36.6H19.8C19.8 40.9 23.2 44.4 27.5 44.4H27.6C28.2 44.4 28.8 44.3 29.4 44.2C28.1 45 26.7 45.3 25.2 45.2C20.4 45.3 16.5 41.4 16.5 36.7V36.6H15.9C15.9 41.7 20 45.8 25.1 45.9C25.2 45.7 25.2 45.7 25.2 45.8ZM13.4 35.4C13.6 35.7 14.2 35.6 14.6 35.4C15 35.2 14.9 33.9 15.4 33.9C15.6 33.9 15.3 34.5 15.3 34.8H15.7C15.8 34.3 15.9 33.8 15.8 33.3C15.7 32.8 17.6 31.2 17.8 29.9C17.9 29.3 18 28.7 17.7 28.7C17.4 28.7 17 29.2 16.8 29.5C16.3 30.2 16.2 31.7 16 32.3C15.9 32.5 15.7 32.6 15.7 32.4C15.7 31.9 15.6 31.5 15.6 31C16.2 30.1 17.1 28.4 15.5 26.9C15.4 26.8 15.2 26.8 15.2 26.9C14.5 28 16.1 29.8 15.5 30.4C14.8 30 15.3 28 13.9 26.7C13.6 26.4 13.5 26.4 13.4 26.8C13 28.6 15 29.6 15.3 31.1C15.4 31.5 15.4 31.8 15.4 32.2C15.3 32.2 15.2 32.1 15.1 31.9C14.7 30.9 15 30 13.5 29C13.2 31.2 14.7 32 15.3 32.7V33C14.9 33.5 14.1 33.3 14.2 34.6C14.3 35.1 13.2 34.9 13.4 35.4ZM13.7 34.3L14 34.2L13.3 33C13.7 31.3 13 30 12.5 28.3C11.9 28.8 12.4 31.6 12.8 32.8C12.1 32.2 11.7 31.4 11.4 30.6C11.4 29.8 11.6 29 11.9 28.3C12.6 27.2 12.8 25.7 12.3 24.4C12 26.3 10.7 27.2 11.1 29.7C10.8 29.1 10.6 28.5 10.5 27.9C11 26.4 12.3 25 11.9 23.7C11.3 24.7 10.4 25.1 10.4 27C10.4 27.3 10.1 27.2 10.1 27V25.5C11.3 24.2 12 22.5 12 20.7C10.8 21.7 10.7 23.4 10.2 24.7C10.1 24.9 10.1 24.9 10 24.7C10 24 10.1 23.3 10.2 22.6C11.9 20.2 12.3 18.7 12 17C11.6 18 10.6 21.5 10.5 21.6C10.4 21.1 10.5 20.5 10.6 20C11 18.6 11.6 16.9 11.3 15.2C9.8 16.3 10.3 18.5 10.3 20C10.3 20.5 10.3 20.9 10.2 21.4C10.1 21.5 10.1 21.5 10.1 21.4C10.2 20.1 10.2 18.8 9.9 17.5C8.7 18.9 9.6 20.7 9.9 22C10 22.9 9.9 23.5 9.9 24.3C9.3 23.3 9.9 21.6 9 20.6C7.9 22.2 9.5 24.4 9.9 25C9.9 25.4 9.9 26.3 9.9 26.7C9.6 25.5 9.1 24.4 8.4 23.4C7.7 25.1 9.2 26.6 9.9 27.2L10.7 29.6C10.7 29.8 10.5 29.7 10.4 29.6C9.7 29 9.2 26.7 8.6 26.5C8 27.6 9.7 30.2 10.7 30L12.1 32.7C11.3 33 10.4 30.4 9 29.7C10.4 32 9.8 33.5 12.3 33.3L13.7 34.3ZM16.5 27.3H16.8V26.9H17V26.6H16.5V27.3ZM20.1 28.3L20.4 28.1L19.7 27.6L16.6 27.7V28L19.6 27.9L20.1 28.3ZM13.7 25H14V23.8C14 22.9 14.8 23.1 14.8 23.5V23.6H15.1V23.5C15.1 22.7 13.7 22.6 13.7 23.8V25ZM15.8 26.9H16.1V24.9H17.1V24.6H16C15.9 24.6 15.9 24.7 15.8 24.8V26.9ZM17.7 27.3H18V26.9H18.2V26.6H17.7V27.3ZM16.5 26.2H16.8V25.6H17.1V25.4H16.5V26.2ZM15.9 36.6H16.5C16.5 31.8 20.3 28 25.1 28H25.2C26.7 27.9 28.1 28.3 29.4 29C28.8 28.8 28.2 28.8 27.6 28.8C23.3 28.8 19.8 32.2 19.8 36.5V36.6H20.4C20.3 32.6 23.5 29.4 27.4 29.3H27.5C28.7 29.3 29.8 29.6 30.9 30.2L32.6 31.1L31.2 29.7C29.6 28.1 27.4 27.2 25.1 27.3C20 27.2 15.8 31.3 15.7 36.4C15.8 36.4 15.8 36.5 15.9 36.6ZM13.1 22L13.8 21.6L13.6 19.1H13.2L13.1 22ZM12.7 22.8L14 21.4L15.6 22.4L16.5 21.4L17.2 22L17.4 21.8L16.5 21.1L15.5 22.1L14.3 21.3C14.2 21.2 14 21.2 13.9 21.3L12.6 22.6L12.7 22.8ZM15.9 24.1H16.2V23.5C16.2 22.9 16.7 23 16.7 23.3H17V23.2C17 22.7 15.9 22.6 15.9 23.5V24.1ZM20 27.3H20.3V26.6H20.5V26.3H20V27.3ZM30.7 39.1L29.5 37.5L27.4 38.2L28.7 36.5L27.4 34.7L29.5 35.2L30.8 33.4V35.6L32.8 36.2L30.8 36.9L30.7 39.1ZM31.3 40.9V37.4L34.6 36.2L31.3 35.2V31.6L29.2 34.5L25.8 33.6L27.9 36.4L25.8 39.3L29.2 38.2L31.3 40.9ZM15.5 22.2V20H15L14.9 22L15.5 22.2ZM19 27.3H19.3V25.9L20.2 25.3L20.9 25.9H22.1V25.6H21.1L20.3 24.9L20 25.2H21.2V24.9H20.2L19 25.7V27.3ZM17.9 20L17.5 26H17.8L18.2 20H17.9ZM21.9 27.3H22.2V26.5H22.8V26.3H22L21.9 27.3ZM17.7 24H20.1L18.9 22.5L17.7 24ZM18.2 23.7L18.8 22.8L19.5 23.7H18.2ZM16.1 21.5H16.8L16.6 18.8H16.2L16.1 21.5ZM14.6 18.6C15.1 18.6 15.3 18.2 16.1 18.4C16.3 18.5 16.6 18.6 16.7 18.4C16.8 18.2 16.3 18 16.1 17.9C15.1 17.6 14.7 18 13.8 18C13.8 18 13.6 17.9 13.5 18C13.4 18.1 13.5 18.1 13.6 18.2C13.9 18.5 14.3 18.7 14.6 18.6ZM18.8 20.7L17.8 21.7L18.8 22.7L19.8 21.7L18.8 20.7ZM18.8 21.1L19.5 21.8L18.8 22.5L18.1 21.8L18.8 21.1ZM18 21.8H19.5V21.6H18V21.8ZM18.8 21.1L19.6 20.1H18L18.8 21.1ZM18.8 20.7L18.4 20.3H19.1L18.8 20.7ZM24.3 26C24.7 25.5 23.5 25.1 23.7 24.8C24.3 25.4 25.3 25.8 25.6 25.3C25.4 24.3 24.3 25.1 23.8 24.6C23.8 24.2 25.2 24.8 25.2 24.1C24.6 23.6 23.6 23.7 23.1 24.3C22.8 24.2 22.6 24 22.4 23.8C22.9 23.9 23.4 23.8 23.8 23.4C23.6 22.8 22.5 23.1 21.9 23.2C21.7 23.1 21.5 23 21.4 22.8C21.9 23 22.4 22.9 22.8 22.6C22.9 22.2 21.7 21.9 20.9 22L20.3 21L20 21.4L20.8 22.6C20.4 23.9 21.1 24.5 21.3 24.4C21.7 24.2 20.9 23.5 21.1 23.1C21.3 23.3 21.5 23.4 21.7 23.6C21.6 24.9 22.5 26 22.8 25.6C23.1 25.2 22 24.6 22.4 24.3C22.6 24.5 22.8 24.7 23.1 24.8C23.2 25.4 24 26.2 24.3 26ZM12.9 16.7C13.5 16.9 13.5 17.1 15 15.8L15.8 15.1C16.7 14.3 17.1 14.6 17.5 15L17.8 14.7C17.4 14.3 16.8 13.9 15.5 14.9L14.8 15.5C14.1 16 13.5 16.4 12.9 16.7ZM19 19.9V19C19 17.8 18.2 18 17.8 16.9C17.4 17.8 17.6 18.8 18.4 19.5C18.3 19.1 18 18.7 18.4 18.3C18.7 18.5 18.8 18.7 18.7 19.3V19.9H19ZM35.1 35.7C35.3 36 35.7 36.1 36 35.9C36.1 35.8 36.2 35.8 36.2 35.7C36.3 35.5 35.8 35.1 35.5 35.1C35.3 35.1 35.1 35.2 35 35.4C35 35.4 35 35.6 35.1 35.7ZM21.9 21.2C22.1 21.2 22.2 21.1 22.3 20.9C22.3 20.7 22.2 20.5 22 20.5C22 20.5 22 20.5 21.9 20.5C21.7 20.5 21.6 20.6 21.5 20.8C21.5 20.8 21.5 20.8 21.5 20.9C21.5 21.1 21.7 21.2 21.9 21.2C21.9 21.3 21.9 21.3 21.9 21.2ZM35 38C35.2 38.1 35.4 38.1 35.5 37.9C35.6 37.8 35.6 37.7 35.6 37.7C35.7 37.7 37.1 38 36.9 37C37.3 37 37.6 37 37.8 36.4C38 36.4 38.5 36.4 38.4 36C38.5 35.9 39 36.2 39 35.3C39.3 35.3 39.7 34.6 39.2 34.5C39.1 34.4 39.2 34.2 39.2 34.2C39.4 33.9 39.6 33.5 39.2 33.4C39 33.3 39.2 33 39.1 32.9C38.9 32.8 38.7 32.8 38.5 33C38.3 33.2 38.4 33.3 38.4 33.4C38.1 33.5 38 33.8 38.1 34.1C38.1 34.2 38.2 34.2 38.2 34.3C38.3 34.4 38.3 34.5 38.2 34.7C38.2 34.8 37.9 34.8 37.9 35C37.9 35.2 38.1 35.3 38.3 35.3C38.3 35.6 38.4 35.9 38.2 36C38 36.1 38.2 35.6 37.7 35.3C37.8 34.9 37.8 34.4 37.6 34.4C37.6 34.2 37.7 33.7 37.1 33.5C37.1 33.3 36.9 32.9 36.6 32.9C36.3 32.9 36.3 33.2 36.3 33.5C36.1 33.5 36 33.7 36 33.8C36 34 36.2 34.1 36.3 34.1C36.1 34.7 36.4 34.9 36.8 35C36.6 35.6 37.3 35.7 37.5 35.9C37.7 36.1 37.6 36.3 37.5 36.2C37.1 35.9 36.6 36 36.4 36.4C36.4 36.5 36.3 36.5 36.3 36.6C36.1 36.6 35.9 36.6 35.6 36.7C35.2 36.7 34.5 37.8 35 38ZM13.8 17.4C15.2 17.4 16.4 16.7 17.3 15.7C17.8 15.2 18.1 14.8 18.7 14.9C20.6 15.2 21 15.3 21.6 15C21.7 14.9 21.9 14.8 22 14.8L22.2 14.2C20.8 14.9 20.7 14.9 18.8 14.4C18 14.2 17.5 14.9 16.9 15.4C15.7 16.5 14.1 17.2 12.5 17.4H13.8ZM39.8 33.3H40.1V31.9H34.6V32.2H39.7V33.3H39.8ZM32 29C32.1 29.1 32.3 28.9 32.2 28.6C33.2 28.8 33.2 27.6 32.8 27.6C32.1 27.6 32.3 28.1 31.9 28.1C31.8 28.1 31.7 28 31.8 27.8C32 27.7 32.4 27.8 32.5 27.4C32.6 27 32.3 27.1 32.4 26.9C32.6 26.9 33 26.4 32.7 26.2C32.6 26.2 32.7 26.1 32.8 26C33 25.9 33 25.6 32.9 25.4C32.9 25.4 32.9 25.4 32.8 25.3C32.8 25.1 32.7 24.9 32.6 24.8C32.5 24.7 32.3 24.7 32.2 24.8C32 24.9 32 25.2 32 25.5C31.8 25.5 31.6 25.6 31.7 25.9C31.6 26 31.6 26.2 31.6 26.3C31.8 26.5 31.6 26.6 31.5 26.6C31.4 26.7 31.5 26.8 31.5 26.9C31.5 27 31.6 27.2 31.4 27.2C31.4 26.9 31.3 26.7 31.1 26.5C31.1 26.3 31.2 26.2 31.2 26C31.4 26.1 31.5 25.9 31.4 25.7C31.3 25.5 31.3 25.3 31.4 25.2C31.7 25.2 31.7 24.8 31.4 24.6C31.3 24.5 31.3 24.4 31.4 24.3C31.6 24 31.5 23.6 31.2 23.8C31.2 23.4 31.1 23 30.7 23C30.4 23 30.2 23.2 30.3 23.5C30.3 23.6 30.3 23.6 30.4 23.7C30 23.6 29.7 24.6 30.2 24.7C30 25.2 30.2 25.4 30.6 25.6C30.4 25.8 30.4 26.1 30.7 26.2C30.8 26.4 31.1 26.8 30.9 26.9C30.6 26.7 30.5 26 30 26.1C29.9 25.5 28.6 25.1 28.6 25.4C28.5 26.3 29 27.5 30.1 27.4C30.5 27.4 30.8 27.1 31.3 27.6V27.8V28C31.1 28 31.2 28.3 31.3 28.3C31.8 28.3 31.7 28.8 32 29ZM35.7 32.1H38.4L39.3 30.7H34.8L35.7 32.1ZM35.8 31.9L35.2 31H38.8L38.2 31.9H35.8ZM25.4 26.5C25.6 26.6 26.3 26.3 26.6 25.9C26.9 25.5 27.2 25.1 27.5 24.8C28 24.9 26.8 26.3 27.4 26.3C28.3 26.3 27.8 25 28 24.4C28.2 24.1 28.4 23.9 28.6 23.7C28.7 23.8 28.7 24.1 28.6 24.4C28.5 24.8 28.3 25.2 28.5 25.2C28.7 25.2 29 25 29.1 24.5C29.2 24.3 29.3 24 29.3 23.8C29.3 23.7 29.2 23.4 29.2 23.2C29.4 23 29.6 22.3 29.7 22.3C29.9 22.4 29.7 23.2 29.7 23.4C29.7 23.6 29.9 23.8 30.1 23.5C30.3 23.2 30.2 22.2 30 21.8C30.1 21.5 30.2 21.3 30.3 21C30.4 21.3 30.7 23.1 31 22.3C31.5 21 30.4 20.7 30.5 20.2L30.7 19C30.7 18.8 30.6 18.7 30.6 18.7L30.3 18.5C30.2 18.4 30.1 18.5 30.1 18.6V18.7C30.1 19.6 30 20.6 29.7 21.5C29.3 21.5 27.6 21.9 27.8 22.5C27.9 22.7 28.4 22.7 28.7 22.5C29.1 22.3 29.1 22.2 29.3 22.1C29.2 22.3 28.8 23 28.6 23C28.2 22.8 26.5 23.3 26.8 23.6C27.2 23.9 27.2 23.7 27.5 23.7C27.8 23.6 27.9 23.5 28.1 23.5L27.8 24C27.4 23.9 27 23.9 26.6 24.1C26.2 24.3 25.9 24.6 26.1 24.8C26.3 25 26.6 24.7 26.9 24.6C27.2 24.5 27.5 24.3 27.5 24.5C27.5 24.6 26.4 25.3 25.7 25.8C25.4 26 25.1 26.3 25.4 26.5ZM19.2 14.4L20.2 14C20.8 13.8 21.4 13.9 21.9 14.1L22.4 14.3L23.1 14L21.7 13.6C21.2 13.4 20.6 13.4 20.1 13.6L18.3 14.3L19.2 14.4ZM36.1 28.8L35.2 28.7L36 28L36.1 28.8ZM24 18.4H24.4V15.3H24V18.4ZM36.1 30.7H36.5L35.1 29L36.1 29.1V29.8L36.8 30L36.7 30.6H37V30L37.8 30.1L37.3 30.5H37.8L38.4 30L36.1 27.3L34.5 28.7L36.1 30.7ZM21.5 22L22.1 22.1C21.6 21.2 21.4 20.7 20.8 20.5C21.4 20 22.2 20 22.8 20.5C22.8 20.5 22.9 20.6 22.9 20.7V15.3C22.9 15 23.1 14.7 23.4 14.6C23.7 14.5 24 14.8 24.1 15.1C24.1 15.2 24.1 15.2 24.1 15.3H24.5V13.7C24.5 13.4 24.7 13.1 25 13C25.3 13 25.6 13.2 25.7 13.5C25.7 13.6 25.7 13.6 25.7 13.7V15.3H26C26 15 26.3 14.7 26.6 14.7C26.9 14.7 27.2 15 27.2 15.3V20.6C28 19.7 29.1 19.5 29.6 19.9C29.2 20.1 28.8 20.5 28.5 21.6L29 21.4C29.2 20.8 29.6 20.3 30 20C29.7 19.1 28.4 19 27.6 19.6V15.3C27.7 14.7 27.4 14.2 26.8 14.1C26.2 14 25.7 14.3 25.6 14.9C25.6 15.1 25.6 15.2 25.6 15.4H26V13.8C26 13.2 25.5 12.8 25 12.8C24.5 12.8 24 13.3 24 13.8V15.4H24.4C24.6 14.8 24.2 14.3 23.7 14.1C23.2 13.9 22.6 14.3 22.4 14.8C22.4 15 22.4 15.2 22.4 15.3V19.8C21.7 19.4 20.7 19.6 20.3 20.3C20.3 20.4 20.2 20.4 20.2 20.5C20.7 20.9 21.2 21.4 21.5 22ZM37.8 29.9L36.5 29.6L36.4 28.2L37.8 29.9ZM28.5 20.7C28.7 20.7 28.8 20.5 28.8 20.3C28.8 20.1 28.7 20 28.5 20C28.3 20 28.2 20.1 28.1 20.3C28.2 20.5 28.3 20.7 28.5 20.7ZM25.6 18.4H26V15.3H25.6V18.4ZM34.1 28.6C34.4 28.6 34.7 27.6 34.8 26.9C34.8 26.6 35.1 26 35.3 26.5C35.7 27.9 35.9 27.7 36 27.4C36.1 27.1 35.8 25.2 35.4 25.3C35 25.4 34.8 26.1 34.6 26.5C34.4 26.9 34.3 26.6 34.3 26.5C34.7 24.9 35.5 23.5 35.2 22.5C35.1 22.2 35.3 21.9 35.5 21.8C35.6 21.6 35.5 21.5 35.2 21.7L34.2 22.3C34.1 22.4 33.8 22.6 34 22.7C34.2 22.8 34.8 22.4 34.8 22.8C34.8 23.9 33.9 25.4 33.8 26.7C34 25.6 33.9 24.4 33.5 23.3C33 22.6 32.8 22.4 32.9 22.8C33.1 23.7 33.2 24.7 33.2 25.7C33.4 26.7 33.6 27.7 34.1 28.6ZM33.8 22.1C34.5 21.7 33.5 21 32.8 21.1C32.7 21.4 33.2 22.4 33.8 22.1ZM33 20.8C33.7 20.5 32.6 19.8 32 19.8C32 20 32.4 21.1 33 20.8ZM32.3 19.5C32.8 19.3 32 18.4 31.3 18.6C31.2 18.8 31.7 19.8 32.3 19.5ZM34.6 21.7C35 21.4 34.4 20.8 33.9 20.8C33.7 21.2 34.2 22 34.6 21.7ZM36.5 27.6C36.8 27.6 37.1 26.9 37.1 26.8C37.1 26.7 37.8 25.5 37.7 26C37.6 27 38.1 26.8 38.4 27.6C38.6 27 38.3 25.1 37.9 25.1C37.5 25.2 37.3 25.7 37.1 26.1C37.1 26.2 36.9 26.2 37 26C37.6 24.4 38.2 22.2 37.8 21.2C37.7 20.9 37.9 20.7 38.1 20.4C38.3 20.2 38 20.2 37.8 20.3L36.8 20.9C36.6 21 36.6 21.2 36.8 21.2C37 21.2 37.5 21.1 37.5 21.4C37.5 22.8 37.2 24.2 36.6 25.4C36.8 24.5 36.8 23.5 36.7 22.6C36.4 22.1 36 22 36 22.3C36.1 23.4 36.2 24.6 36.2 25.7C36.2 26.8 36.2 27.7 36.5 27.6ZM33.8 20.4C34.2 20.1 33.6 19.5 33.1 19.5C33 19.9 33.3 20.7 33.8 20.4ZM33 19.2C33.4 18.9 32.7 18.2 32.3 18.2C32.2 18.6 32.6 19.4 33 19.2ZM31.8 18C32.3 17.6 31.3 17.1 30.7 17.3L29.4 15.1H29.3L30.6 17.4C30.8 17.7 31.4 18.3 31.8 18ZM21.3 13.6C21.4 11.5 23.1 9.9 25.1 9.9C27.1 9.9 28.8 11.6 28.8 13.6L30.5 12.7L29.5 12.5L31.5 11.2L29.1 11.7L30 10.5L28.8 11L30 9.3L28.2 10.4L28.5 9.2L27.4 10L27.6 7.7L26.6 9.6L26.4 8L25.6 9.3L25 7.1L24.6 9.3L23.9 8.2L23.8 9.7L22.4 8L22.8 10L21.4 9L22 10.6L19.3 9L21.2 11.3L19.8 10.9L20.8 11.8L17.8 11.6L20.6 12.8L19 13L21.3 13.6ZM35.1 21.2C35.8 20.7 35.2 19.9 34.8 19.6C34.6 20.1 34.6 21.6 35.1 21.2ZM31.1 17H31.4L29.9 14.8L31.1 17ZM34.4 19.9C35.1 19.4 34.5 18.6 34.1 18.2C33.7 18.8 33.8 20.3 34.4 19.9ZM33.5 18.8C34.2 18.2 33.6 17.5 33.2 17.2C33 17.8 33 19.1 33.5 18.8ZM31.8 16.8L31.9 16.5L30.5 14.6L31.8 16.8ZM39.9 30.1L40.1 30C40.2 30 40.2 29.9 40.2 29.8C40.2 29.8 40.2 29.8 40.1 29.7C39.2 26.1 42.2 24 41 20.8C40.9 20.6 40.8 20.6 40.8 20.9C41.2 23 39.9 25.1 39.6 27.2C39.3 23.9 40.8 22 40.3 20.1C40.2 19.6 40.4 19.1 40.7 18.8C40.8 18.7 40.6 18.7 40.5 18.7L39.1 19.6C38.9 19.7 39 19.9 39.2 19.9C39.6 19.7 40 19.8 40.1 20.1C40.6 21.2 39.5 23.5 39.4 25.2C39.1 24.4 39.7 21.8 38.8 21.8C37.9 21.8 38.4 23.4 38.2 24.1C38.6 24.2 38.5 22.9 38.8 23.1C38.8 25.4 39.2 27.6 40 29.7C39.8 29.9 39.9 30 39.9 30.1ZM28 14.4L28.4 14.2C28.9 13.9 29.4 13.8 30 13.8L31 14L31.9 13.7L29.8 13.4C29.3 13.4 28.8 13.5 28.4 13.7L27.4 14.2L28 14.4ZM32.4 17.6C32.9 17.2 32.6 16.5 32.4 16.3L31.2 14.5L32.3 16.5C32.1 16.8 31.9 17.9 32.4 17.6ZM37 20.7C37.4 20.3 36.5 19.9 36 20.1C35.9 20.2 36.6 21 37 20.6V20.7ZM36.3 19.7C36.8 19.3 35.8 18.8 35.3 19C35.2 19.1 35.9 19.9 36.3 19.5V19.7ZM35.7 18.7C36.1 18.3 35.2 17.9 34.6 18.1C34.6 18.2 35.3 18.9 35.7 18.7ZM35.1 17.6C35.5 17.2 34.6 16.7 34 16.9C33.9 17.2 34.6 18 35.1 17.6ZM37.5 20.1C38.1 19.8 37.6 18.8 37.4 18.8C36.9 19.3 37 20.4 37.5 20.1ZM34.4 16.5C34.9 16.1 33.9 15.6 33.4 15.8L32 14L33.2 15.8C33.4 16.2 34 16.8 34.4 16.5ZM36.8 19.1C37.4 18.8 36.9 17.8 36.7 17.8C36.3 18.3 36.3 19.4 36.8 19.1ZM36.2 18.2C36.8 17.9 36.3 16.9 36.1 16.9C35.6 17.3 35.7 18.4 36.2 18.2ZM33.6 15.4H33.9L32.6 13.6L33.6 15.4ZM35.5 17.2C36.1 16.9 35.6 15.9 35.4 15.9C35 16.3 35.1 17.5 35.5 17.2ZM34.4 15.2L34.5 14.9L33.3 13.4L34.4 15.2ZM38.9 19.4C39.5 19 38.6 18.4 38 18.5C37.8 18.8 38.4 19.8 38.9 19.4ZM34.9 16.1C35.5 15.8 35.1 14.9 34.9 14.7L33.7 13.1L34.7 14.8C34.6 15.3 34.4 16.4 34.9 16.1ZM38.2 18.2C38.8 17.9 37.9 17.2 37.3 17.3C37.1 17.5 37.6 18.5 38.2 18.2ZM37.5 17C38 16.7 37.2 16.1 36.6 16.1C36.5 16.4 37 17.3 37.5 17ZM39.6 19C40 18.7 39.4 18.2 39 18.2C38.8 18.6 39.2 19.3 39.6 19ZM38.9 17.8C39.3 17.5 38.7 16.9 38.2 16.9C38.1 17.4 38.5 18.1 38.9 17.8ZM38.1 16.7C38.4 16.4 37.9 15.8 37.5 15.8C37.4 16.2 37.8 16.9 38.1 16.7ZM37.1 15.6C37.6 15.2 36.6 14.7 36.1 14.9L34.5 12.7L36 15C36.1 15.4 36.7 16 37.1 15.6ZM40 18.6C40.7 18.1 40.1 17.4 39.8 17.1C39.5 17.7 39.6 19 40 18.6ZM36.5 14.7H36.8L35.2 12.5H35L36.5 14.7ZM39.3 17.4C39.9 16.9 39.4 16.2 39.1 15.9C38.8 16.4 38.9 17.8 39.3 17.4ZM38.5 16.3C39.2 15.8 38.6 15.1 38.3 14.9C38.1 15.3 38.1 16.7 38.5 16.3ZM37.1 14.4L37.2 14.2L35.7 12.1H35.6L37.1 14.4ZM37.7 15.1C38.2 14.8 37.8 13.9 37.6 13.7L36.2 11.7L37.5 13.8C37.4 14.3 37.2 15.4 37.7 15.1Z" fill="white"/>
</g>
<defs>
<clipPath id="clip0_91_22">
<rect width="50" height="50" fill="white"/>
</clipPath>
</defs>
</svg>
